<?xml version="1.0" encoding="utf-8"?>
<svg version="1.1" xmlns:xlink="http://www.w3.org/1999/xlink" width="16px" height="16px" xmlns="http://www.w3.org/2000/svg">
  <g transform="matrix(1 0 0 1 -2382 -129 )">
    <path d="M 14.0642663509001 16  L 1.93534649027296 16  C 0.866047219802559 16  0 15.1337431570632  0 14.0641851077072  L 0 3.26947094363024  C 0 2.19991287612242  0.866047237950068 1.33288156443133  1.93534649027296 1.33288156443133  L 14.0638792102207 1.33288156443133  C 15.1331784806911 1.33288156443133  16 2.19991287612242  16 3.26947094363024  L 16 14.0641851077072  C 16 15.1337431570632  15.1331784625436 16  14.0642663509001 16  Z M 15.3433991361789 3.85575293914888  C 15.3433991361789 2.78696935854721  14.4773518982288 1.91993804685611  13.4080526459059 2  L 2.5919473359466 2  C 1.5226480654762 1.91993804685611  0.655826546167274 2.78696935854721  0.655826546167274 3.85575293914888  L 0.655826546167274 13.4771286071305  C 0.655826546167274 14.5466866746384  1.5226480654762 15.4137179863295  2.5919473359466 15.4137179863295  L 13.4080526459059 15.4137179863295  C 14.4773519163763 15.4137179863295  15.3433991361789 14.5466866746384  15.3433991361789 13.4771286071305  L 15.3433991361789 3.85575293914888  Z M 4.1157568597561 4.33322038656986  L 3.34146339648666 4.33322038656986  C 3.14324426538908 4.33322038656986  2.98296551974448 4.17212836257346  2.98296551974448 3.97463574441881  L 2.98296553789199 0.358584642151052  C 2.98296553789199 0.160317537090255  3.14324428353659 0  3.34146341463417 0  L 4.1157568779036 0  C 4.31397600900118 0  4.47425475464578 0.160317537090255  4.47425475464578 0.358584642151052  L 4.47425475464578 3.97502299694782  C 4.4746418771777 4.17251561510249  4.31397599085367 4.33322038656986  4.1157568597561 4.33322038656986  Z M 8.5903987550813 4.33322038656986  L 7.81610529181186 4.33322038656986  C 7.61788616071429 4.33322038656986  7.45760741506969 4.17212836257346  7.45760741506969 3.97463574441881  L 7.4576074332172 0.358584642151052  C 7.4576074332172 0.160317537090255  7.6178861788618 0  7.81610530995937 0  L 8.59039877322881 0  C 8.78861790432639 0  8.94889664997096 0.160317537090255  8.94889664997096 0.358584642151052  L 8.94889664997096 3.97502299694782  C 8.94889663182348 4.17251561510249  8.78861788617888 4.33322038656986  8.5903987550813 4.33322038656986  Z M 12.7452574404762 4.33322038656986  L 11.9709639772068 4.33322038656986  C 11.8029422909408 4.33322038656986  11.6658923490128 4.19613727514485  11.6658923490128 4.02730045469464  L 11.6658923671603 0.305145463120967  C 11.6658923671603 0.137083111424997  11.8029423090883 0  11.9709639953543 0  L 12.7452574586237 0  C 12.9140534262486 0  13.0511033681766 0.137083111424997  13.0511033681766 0.305145463120967  L 13.0511033681766 4.02768768907177  C 13.0507162093496 4.19652452767387  12.9140534262486 4.33322038656986  12.7452574404762 4.33322038656986  Z M 2.98296553789199 7.33317199248315  L 2.98296553789199 5.66648918537832  L 5.21989933580141 5.66648918537832  L 5.21989933580141 7.33317199248315  L 2.98296553789199 7.33317199248315  Z M 6.71196283391406 7.33317199248315  L 6.71196283391406 5.66648918537832  L 8.94889663182348 5.66648918537832  L 8.94889663182348 7.33317199248315  L 6.71196283391406 7.33317199248315  Z M 10.8133952707607 7.33317199248315  L 10.8133952707607 5.66648918537832  L 13.0507162093496 5.66648918537832  L 13.0507162093496 7.33317199248315  L 10.8133952707607 7.33317199248315  Z M 2.98296553789199 10.0000968063253  L 2.98296553789199 8.33302676484332  L 5.21989933580141 8.33302676484332  L 5.21989933580141 10.0000968063253  L 2.98296553789199 10.0000968063253  Z M 6.71196283391406 10.0000968063253  L 6.71196283391406 8.33302676484332  L 8.94889663182348 8.33302676484332  L 8.94889663182348 10.0000968063253  L 6.71196283391406 10.0000968063253  Z M 10.8133952707607 10.0000968063253  L 10.8133952707607 8.33302676484332  L 13.0507162093496 8.33302676484332  L 13.0507162093496 10.0000968063253  L 10.8133952707607 10.0000968063253  Z M 2.98296553789199 12.6666344039422  L 2.98296553789199 10.9999515968374  L 5.21989933580141 10.9999515968374  L 5.21989933580141 12.6666344039422  L 2.98296553789199 12.6666344039422  Z M 6.71196283391406 12.6666344039422  L 6.71196283391406 10.9999515968374  L 8.94889663182348 10.9999515968374  L 8.94889663182348 12.6666344039422  L 6.71196283391406 12.6666344039422  Z M 10.8133952707607 12.6666344039422  L 10.8133952707607 10.9999515968374  L 13.0507162093496 10.9999515968374  L 13.0507162093496 12.6666344039422  L 10.8133952707607 12.6666344039422  Z " fill-rule="nonzero" fill="#808695" stroke="none" transform="matrix(1 0 0 1 2382 129 )" />
  </g>
</svg>