<?xml version="1.0" standalone="no"?><!DOCTYPE svg PUBLIC "-//W3C//DTD SVG 1.1//EN" "http://www.w3.org/Graphics/SVG/1.1/DTD/svg11.dtd"><svg class="icon" width="200px" height="199.22px" viewBox="0 0 1028 1024" version="1.1" xmlns="http://www.w3.org/2000/svg"><path fill="#ffffff" d="M1007.809667 160.515585A94.674898 94.674898 0 0 0 932.563168 123.354916h-185.032374a26.21292 26.21292 0 1 0 0 52.42584h185.032374a43.020027 43.020027 0 0 1 41.632284 53.505195l-85.88586 339.22602a42.865833 42.865833 0 0 1-41.786478 32.380666h-539.677759c-13.569041-70.466496-56.743262-294.81825-83.110375-424.340913h215.871103a26.21292 26.21292 0 0 0 0-52.425839H212.32465c-2.467098-11.564523-4.625809-21.278723-6.32194-28.371631C183.798825 1.233549 121.042012 0 117.958139 0H26.21292a26.21292 26.21292 0 0 0 0 52.425839h90.665863c1.079356 0 25.904532 2.929679 38.085831 54.892938 16.344526 69.541334 80.334889 400.903478 98.99232 497.737088a127.518145 127.518145 0 0 0 30.838729 250.718868 109.323295 109.323295 0 0 0-16.652913 57.97681 110.40265 110.40265 0 1 0 204.460774-57.97681h255.344677a110.248457 110.248457 0 1 0 93.749736-52.42584H287.262762a75.246499 75.246499 0 1 1 0-150.492998H846.523114a95.445867 95.445867 0 0 0 92.516187-72.008432l85.731667-338.300859a94.520705 94.520705 0 0 0-16.961301-82.031019z m-570.516488 753.235958a57.976811 57.976811 0 1 1-57.976811-57.97681 57.976811 57.976811 0 0 1 57.51423 57.97681z m442.689956 0a57.976811 57.976811 0 1 1-57.822617-57.97681A57.976811 57.976811 0 0 1 878.90378 913.751543z"  /><path fill="#ffffff" d="M452.095769 286.800181a26.21292 26.21292 0 1 0 37.160668 37.006475l77.096823-77.096823v266.755007a26.21292 26.21292 0 0 0 52.42584 0V246.709833l77.096822 77.096823a26.367113 26.367113 0 0 0 18.503238 7.709682 26.675501 26.675501 0 0 0 18.657431-7.709682 26.21292 26.21292 0 0 0 0-37.006475l-107.935552-107.935552a44.561964 44.561964 0 0 0-24.979371-12.181298 27.292275 27.292275 0 0 0-7.092907-1.079356 25.133564 25.133564 0 0 0-6.938714 1.079356 44.099383 44.099383 0 0 0-24.979371 12.181298z"  /></svg>